<?xml version="1.0" encoding="utf-8"?>
<!-- Generator: Adobe Illustrator 19.0.0, SVG Export Plug-In . SVG Version: 6.00 Build 0)  -->
<svg version="1.1" id="Layer_1" xmlns="http://www.w3.org/2000/svg" xmlns:xlink="http://www.w3.org/1999/xlink" x="0px" y="0px"
	 viewBox="0 0 504 203" style="enable-background:new 0 0 504 203;" xml:space="preserve">
<style type="text/css">
	.st0{fill:#FFFFFF;}
</style>
<polygon class="st0" points="105.7,195 147.2,195 189.1,81.8 189.5,81.8 189.5,195 246.2,195 246.2,7.4 167.5,7.4 127.6,121 
	85.7,7.4 6.2,7.4 6.2,195 62.6,195 62.6,81.8 63,81.8 "/>
<rect x="259.6" y="79.1" class="st0" width="58" height="116"/>
<g>
	<path class="st0" d="M439.1,124.5c0,20-16.1,30.6-32.1,30.6c-11.4,0-20.4-4.7-20.4-16.5c0-10.2,6.7-17.2,20.4-19.6l32.1-5.5V124.5z
		 M498.6,195V74.4c0-52.1-36.8-70.9-81.9-70.9c-51.7,0-82.7,27.4-85.4,63.1h59.2c1.2-9.8,10.2-18.4,25.5-18.4s23.1,7.8,23.1,20.8V74
		L394,79.8c-40.4,5.1-67.4,21.5-67.4,63.1c0,36.4,23.9,56,61.1,56c26.2,0,42.3-10.6,52.5-27.8L441,195H498.6z"/>
</g>
<rect x="259.6" y="7.4" class="st0" width="58" height="59.2"/>
</svg>
